<svg width="35" height="35" viewBox="0 0 35 35" fill="none" xmlns="http://www.w3.org/2000/svg">
<path fill-rule="evenodd" clip-rule="evenodd" d="M12.6394 13.7332C12.1447 13.7332 11.6549 13.8306 11.1979 14.0199C10.7409 14.2092 10.3256 14.4867 9.97584 14.8365C9.62605 15.1863 9.34859 15.6015 9.15928 16.0586C8.96998 16.5156 8.87255 17.0054 8.87255 17.5001C8.87255 17.9948 8.96998 18.4846 9.15928 18.9416C9.34859 19.3986 9.62605 19.8139 9.97584 20.1637C10.3256 20.5135 10.7409 20.7909 11.1979 20.9802C11.6549 21.1695 12.1447 21.267 12.6394 21.267H16.4063V17.5759C16.4057 17.5254 16.4057 17.4748 16.4063 17.4242V13.7332H12.6394ZM16.4063 11.5457H12.6394C11.6402 11.5457 10.6819 11.1488 9.97532 10.4422C9.26876 9.73564 8.87182 8.77733 8.87182 7.7781C8.87182 6.77887 9.26876 5.82057 9.97532 5.114C10.6819 4.40744 11.6402 4.0105 12.6394 4.0105H16.4063V11.5457ZM18.5938 4.0105V11.5457H22.3607C23.3471 11.5263 24.2865 11.1208 24.9772 10.4164C25.668 9.71193 26.0549 8.76469 26.0549 7.7781C26.0549 6.79152 25.668 5.84428 24.9772 5.13983C24.2865 4.43538 23.3471 4.02991 22.3607 4.0105H18.5938ZM22.3607 13.7317C21.3719 13.7316 20.4227 14.1203 19.718 14.8138C19.0133 15.5074 18.6095 16.4502 18.5938 17.4388V17.5599C18.6059 18.3022 18.837 19.0243 19.2582 19.6357C19.6794 20.247 20.2718 20.7203 20.9611 20.996C21.6504 21.2718 22.4058 21.3377 23.1324 21.1855C23.859 21.0333 24.5245 20.6698 25.0451 20.1406C25.5658 19.6115 25.9186 18.9402 26.059 18.2113C26.1995 17.4823 26.1214 16.7281 25.8346 16.0433C25.5477 15.3586 25.065 14.7738 24.4469 14.3626C23.8289 13.9513 23.1031 13.7318 22.3607 13.7317ZM12.6394 23.4545C11.8941 23.4542 11.1653 23.6749 10.5455 24.0888C9.92556 24.5027 9.44234 25.0912 9.1569 25.7797C8.87146 26.4682 8.79662 27.226 8.94186 27.9571C9.0871 28.6881 9.44588 29.3597 9.97283 29.8869C10.4998 30.414 11.1712 30.7731 11.9023 30.9186C12.6333 31.0641 13.391 30.9896 14.0797 30.7044C14.7684 30.4192 15.357 29.9362 15.7711 29.3165C16.1853 28.6968 16.4063 27.9682 16.4063 27.2228V23.4545H12.6394Z" fill="white"/>
</svg>
