<svg width="35" height="35" viewBox="0 0 35 35" fill="none" xmlns="http://www.w3.org/2000/svg">
<path d="M17.4999 7.83133L16.8583 7.74383L8.74992 21.7292C9.09992 22.0355 9.33325 22.4292 9.43534 22.8667H25.5645C25.6666 22.4292 25.8999 22.0355 26.2499 21.7292L18.1416 7.74383L17.4999 7.83133ZM9.62492 24.1063L15.8666 27.7959C16.2895 27.4022 16.8728 27.1688 17.4999 27.1688C18.127 27.1688 18.7103 27.4022 19.1333 27.7959L25.3749 24.1063H9.62492ZM17.4999 32.0834C16.8501 32.0834 16.227 31.8253 15.7675 31.3658C15.308 30.9064 15.0499 30.2832 15.0499 29.6334L15.1812 28.8167L8.91034 25.098C8.45825 25.623 7.802 25.9438 7.05825 25.9438C6.40847 25.9438 5.7853 25.6857 5.32584 25.2262C4.86638 24.7668 4.60825 24.1436 4.60825 23.4938C4.60825 22.3417 5.38117 21.3792 6.44575 21.1022V13.6501C5.23534 13.4897 4.302 12.4542 4.302 11.2001C4.302 10.5503 4.56013 9.92713 5.01959 9.46767C5.47905 9.00821 6.10222 8.75008 6.752 8.75008C7.55409 8.75008 8.25409 9.12925 8.70617 9.71258L15.1374 6.023L15.0499 5.36675C15.0499 4.0105 16.1437 2.91675 17.4999 2.91675C18.8562 2.91675 19.9499 4.0105 19.9499 5.36675L19.8624 6.023L26.2937 9.71258C26.7458 9.12925 27.4458 8.75008 28.2478 8.75008C28.8976 8.75008 29.5208 9.00821 29.9802 9.46767C30.4397 9.92713 30.6978 10.5503 30.6978 11.2001C30.6978 12.4542 29.7645 13.4897 28.5541 13.6501V21.1022C29.6187 21.3792 30.3916 22.3417 30.3916 23.4938C30.3916 24.1436 30.1335 24.7668 29.674 25.2262C29.2145 25.6857 28.5914 25.9438 27.9416 25.9438C27.1978 25.9438 26.5416 25.623 26.0895 25.098L19.8187 28.8167L19.9499 29.6334C19.9499 30.2832 19.6918 30.9064 19.2323 31.3658C18.7729 31.8253 18.1497 32.0834 17.4999 32.0834ZM15.7499 7.08758L9.18742 10.8501L9.21659 11.2001C9.21659 12.2355 8.57492 13.1251 7.67075 13.4897L7.7145 21.1459L15.7499 7.08758ZM19.2499 7.08758L27.2853 21.1459L27.3291 13.4897C26.4249 13.1251 25.7833 12.2355 25.7833 11.2001L25.8124 10.8501L19.2499 7.08758Z" fill="white"/>
</svg>
