<svg width="35" height="35" viewBox="0 0 35 35" fill="none" xmlns="http://www.w3.org/2000/svg">
<path d="M8.75 4.375C7.58968 4.375 6.47688 4.83594 5.65641 5.65641C4.83594 6.47688 4.375 7.58968 4.375 8.75V26.25C4.375 27.4103 4.83594 28.5231 5.65641 29.3436C6.47688 30.1641 7.58968 30.625 8.75 30.625H26.25C27.4103 30.625 28.5231 30.1641 29.3436 29.3436C30.1641 28.5231 30.625 27.4103 30.625 26.25V8.75C30.625 7.58968 30.1641 6.47688 29.3436 5.65641C28.5231 4.83594 27.4103 4.375 26.25 4.375H8.75ZM19.4454 23.4135C20.4954 24.2594 21.5425 24.675 22.5896 24.6648C23.2313 24.6648 23.7242 24.5481 24.0654 24.3119C24.2248 24.2084 24.3544 24.0653 24.4416 23.8965C24.5288 23.7278 24.5705 23.5392 24.5627 23.3494C24.5648 23.1424 24.5215 22.9374 24.4359 22.7489C24.3502 22.5605 24.2242 22.3931 24.0669 22.2585C23.7242 21.9596 23.0767 21.6606 22.1244 21.3602C20.981 21.0292 20.0973 20.6019 19.4775 20.0769C18.8679 19.5519 18.5588 18.8198 18.5471 17.8792C18.5471 16.991 18.9321 16.2488 19.7021 15.6494C20.4517 15.0515 21.4083 14.751 22.575 14.751C24.1996 14.751 25.5048 15.1462 26.4877 15.9381L25.3648 17.6867C24.9605 17.3722 24.4966 17.143 24.0013 17.0129C23.5561 16.864 23.091 16.7829 22.6217 16.7723C22.0675 16.7723 21.6227 16.8744 21.2902 17.0771C20.9592 17.2812 20.7944 17.5481 20.7944 17.8792C20.7944 18.2438 20.9971 18.5529 21.4025 18.8096C21.8108 19.056 22.505 19.3287 23.4879 19.6277C24.675 19.9806 25.5208 20.4517 26.0225 21.0394C26.5256 21.6271 26.7765 22.3767 26.7765 23.2852C26.7765 24.2156 26.4192 25.0177 25.7017 25.6915C24.9958 26.355 23.9692 26.7021 22.6217 26.7342C20.8571 26.7342 19.3813 26.2048 18.1942 25.146L19.4454 23.4135ZM11.3808 24.344C11.7235 24.5583 12.1348 24.6648 12.616 24.6648C13.1192 24.6648 13.5348 24.5204 13.8673 24.2317C14.1983 23.9327 14.3646 23.4135 14.3646 22.6756V14.9435H16.5302V23.0927C16.4981 24.3542 16.135 25.2642 15.4394 25.8198C15.0598 26.1425 14.6173 26.3829 14.14 26.5256C13.6979 26.6603 13.2386 26.7306 12.7765 26.7342C11.9744 26.7342 11.2627 26.5956 10.6429 26.3171C9.97937 26.0181 9.42375 25.4888 8.97458 24.729L10.4825 23.4938C10.7596 23.8685 11.06 24.1515 11.3808 24.344Z" fill="white"/>
</svg>
