<svg width="35" height="35" viewBox="0 0 35 35" fill="none" xmlns="http://www.w3.org/2000/svg">
<g clip-path="url(#clip0_10_872)">
<path fill-rule="evenodd" clip-rule="evenodd" d="M18.361 0.377934C18.2517 0.258385 18.1187 0.16291 17.9705 0.09759C17.8222 0.0322696 17.662 -0.00146484 17.5 -0.00146484C17.338 -0.00146484 17.1778 0.0322696 17.0296 0.09759C16.8814 0.16291 16.7483 0.258385 16.639 0.377934L10.5024 7.0746C8.44573 9.31756 7.25306 12.2184 7.13723 15.2593C7.02141 18.3002 7.98997 21.2834 9.87003 23.6763L16.3334 31.9036V34.9999H18.6667V31.9036L25.13 23.6763C27.0098 21.2838 27.9784 18.3013 27.863 15.2609C27.7476 12.2205 26.5557 9.32003 24.5 7.07693L18.361 0.380268V0.377934ZM18.6667 6.99993C18.6667 6.69051 18.5438 6.39377 18.325 6.17498C18.1062 5.95618 17.8094 5.83327 17.5 5.83327C17.1906 5.83327 16.8939 5.95618 16.6751 6.17498C16.4563 6.39377 16.3334 6.69051 16.3334 6.99993V24.4999C16.3334 24.8094 16.4563 25.1061 16.6751 25.3249C16.8939 25.5437 17.1906 25.6666 17.5 25.6666C17.8094 25.6666 18.1062 25.5437 18.325 25.3249C18.5438 25.1061 18.6667 24.8094 18.6667 24.4999V6.99993Z" fill="white"/>
</g>
<defs>
<clipPath id="clip0_10_872">
<rect width="35" height="35" fill="white"/>
</clipPath>
</defs>
</svg>
