<svg width="33" height="33" viewBox="0 0 33 33" fill="none" xmlns="http://www.w3.org/2000/svg">
<g clip-path="url(#clip0_10_901)">
<path fill-rule="evenodd" clip-rule="evenodd" d="M4.74908e-07 16.5001C0.000106286 13.653 0.736954 10.8543 2.1389 8.37616C3.54084 5.89807 5.56017 3.82491 8.00053 2.35828C10.4409 0.891647 13.2192 0.0814458 16.0654 0.00645742C18.9116 -0.0685309 21.7288 0.594245 24.243 1.93034C26.7572 3.26644 28.8829 5.23038 30.4134 7.63121C31.9438 10.032 32.827 12.7881 32.9771 15.6313C33.1271 18.4745 32.5389 21.3081 31.2695 23.8567C30.0002 26.4053 28.093 28.582 25.7334 30.1753L10.7954 9.26212C10.66 9.07244 10.468 8.93065 10.2468 8.85718C10.0257 8.78371 9.78695 8.78236 9.565 8.85332C9.34305 8.92429 9.14937 9.0639 9.01188 9.25204C8.87439 9.44017 8.8002 9.6671 8.8 9.90012V26.4001H11V13.3321L23.826 31.2885C21.3101 32.5352 18.5176 33.1192 15.713 32.9853C12.9083 32.8514 10.1842 32.0039 7.79858 30.5232C5.41291 29.0424 3.44458 26.9774 2.07989 24.5235C0.715211 22.0696 -0.000673117 19.308 4.74908e-07 16.5001ZM22 22.0001V8.80012H24.2V22.0001H22Z" fill="white"/>
</g>
<defs>
<clipPath id="clip0_10_901">
<rect width="33" height="33" fill="white"/>
</clipPath>
</defs>
</svg>
