<svg width="35" height="35" viewBox="0 0 35 35" fill="none" xmlns="http://www.w3.org/2000/svg">
<path fill-rule="evenodd" clip-rule="evenodd" d="M32.6666 9.83031L17.4999 0.97998L2.33325 9.83031V25.1696L4.68059 26.5393L9.48025 24.598C10.1261 24.3364 10.6793 23.888 11.0688 23.3102C11.4583 22.7324 11.6664 22.0515 11.6666 21.3546V9.33331H13.9999V21.3546C13.9998 22.5163 13.6528 23.6514 13.0034 24.6146C12.3541 25.5778 11.432 26.3251 10.3553 26.761L7.22859 28.0256L17.4999 34.02L32.6666 25.172V9.83031ZM16.3333 14C16.3333 12.7623 16.8249 11.5753 17.7001 10.7001C18.5753 9.82498 19.7622 9.33331 20.9999 9.33331H23.7229C26.0843 9.33331 27.9999 11.2466 27.9999 13.6103V14H25.6666V13.6103C25.6666 13.3551 25.6163 13.1023 25.5186 12.8665C25.421 12.6307 25.2778 12.4164 25.0973 12.2359C24.9168 12.0554 24.7025 11.9123 24.4667 11.8146C24.2309 11.7169 23.9782 11.6666 23.7229 11.6666H20.9999C20.3811 11.6666 19.7876 11.9125 19.35 12.3501C18.9124 12.7877 18.6666 13.3811 18.6666 14C18.6666 14.6188 18.9124 15.2123 19.35 15.6499C19.7876 16.0875 20.3811 16.3333 20.9999 16.3333H23.3333C24.5709 16.3333 25.7579 16.825 26.6331 17.7001C27.5083 18.5753 27.9999 19.7623 27.9999 21C27.9999 22.2377 27.5083 23.4246 26.6331 24.2998C25.7579 25.175 24.5709 25.6666 23.3333 25.6666H20.9999C19.7622 25.6666 18.5753 25.175 17.7001 24.2998C16.8249 23.4246 16.3333 22.2377 16.3333 21H18.6666C18.6666 21.6188 18.9124 22.2123 19.35 22.6499C19.7876 23.0875 20.3811 23.3333 20.9999 23.3333H23.3333C23.9521 23.3333 24.5456 23.0875 24.9832 22.6499C25.4208 22.2123 25.6666 21.6188 25.6666 21C25.6666 20.3811 25.4208 19.7877 24.9832 19.3501C24.5456 18.9125 23.9521 18.6666 23.3333 18.6666H20.9999C19.7622 18.6666 18.5753 18.175 17.7001 17.2998C16.8249 16.4246 16.3333 15.2377 16.3333 14Z" fill="white"/>
</svg>
