<svg width="28" height="28" viewBox="0 0 28 28" fill="none" xmlns="http://www.w3.org/2000/svg">
<g clip-path="url(#clip0_10_922)">
<path d="M3.11111 3.88892C2.28599 3.88892 1.49467 4.21669 0.911223 4.80014C0.327777 5.38359 0 6.17491 0 7.00003L0 21C0 21.8251 0.327777 22.6165 0.911223 23.1999C1.49467 23.7834 2.28599 24.1111 3.11111 24.1111H9.33333V3.88892H3.11111Z" fill="#D91023"/>
<path d="M9.33325 3.88892H18.6666V24.1111H9.33325V3.88892Z" fill="#EEEEEE"/>
<path d="M24.889 3.88892H18.6667V24.1111H24.889C25.7141 24.1111 26.5054 23.7834 27.0889 23.1999C27.6723 22.6165 28.0001 21.8251 28.0001 21V7.00003C28.0001 6.17491 27.6723 5.38359 27.0889 4.80014C26.5054 4.21669 25.7141 3.88892 24.889 3.88892Z" fill="#D91023"/>
</g>
<defs>
<clipPath id="clip0_10_922">
<rect width="28" height="28" fill="white"/>
</clipPath>
</defs>
</svg>
