<svg width="33" height="29" viewBox="0 0 33 29" fill="none" xmlns="http://www.w3.org/2000/svg">
<path d="M16.5001 11.7437C18.0022 11.7437 19.2272 12.9687 19.2272 14.4999C19.2272 15.9583 18.0022 17.1979 16.5001 17.1979C14.998 17.1979 13.773 15.9583 13.773 14.4999C13.773 12.9687 14.998 11.7437 16.5001 11.7437ZM9.748 26.1666C10.6667 26.7208 12.6792 25.8749 14.998 23.6874C14.2397 22.827 13.4959 21.8937 12.7959 20.9166C11.6207 20.8041 10.4524 20.6289 9.29591 20.3916C8.55216 23.5124 8.82925 25.6562 9.748 26.1666ZM10.7834 17.7958L10.3605 17.052C10.2001 17.4749 10.0397 17.8979 9.93758 18.3062C10.3313 18.3937 10.7688 18.4666 11.2209 18.5395L10.7834 17.7958ZM20.3209 16.6874L21.5022 14.4999L20.3209 12.3124C19.8834 11.5395 19.4167 10.8541 18.9938 10.1687C18.2063 10.1249 17.3751 10.1249 16.5001 10.1249C15.6251 10.1249 14.7938 10.1249 14.0063 10.1687C13.5834 10.8541 13.1167 11.5395 12.6792 12.3124L11.498 14.4999L12.6792 16.6874C13.1167 17.4604 13.5834 18.1458 14.0063 18.8312C14.7938 18.8749 15.6251 18.8749 16.5001 18.8749C17.3751 18.8749 18.2063 18.8749 18.9938 18.8312C19.4167 18.1458 19.8834 17.4604 20.3209 16.6874ZM16.5001 6.88744C16.223 7.20827 15.9313 7.54369 15.6397 7.93744H17.3605C17.0688 7.54369 16.7772 7.20827 16.5001 6.88744ZM16.5001 22.1124C16.7772 21.7916 17.0688 21.4562 17.3605 21.0624H15.6397C15.9313 21.4562 16.223 21.7916 16.5001 22.1124ZM23.2376 2.83327C22.3334 2.2791 20.3209 3.12494 18.0022 5.31244C18.7605 6.17285 19.5042 7.10619 20.2042 8.08327C21.4001 8.19994 22.5813 8.37494 23.7042 8.60827C24.448 5.48744 24.1709 3.34369 23.2376 2.83327ZM22.2167 11.2041L22.6397 11.9479C22.8001 11.5249 22.9605 11.102 23.0626 10.6937C22.6688 10.6062 22.2313 10.5333 21.7792 10.4604L22.2167 11.2041ZM24.3313 0.922854C26.4751 2.14785 26.7084 5.37077 25.8042 9.13327C29.5084 10.227 32.1772 12.0354 32.1772 14.4999C32.1772 16.9645 29.5084 18.7729 25.8042 19.8666C26.7084 23.6291 26.4751 26.852 24.3313 28.077C22.2022 29.302 19.3001 27.902 16.5001 25.2333C13.7001 27.902 10.798 29.302 8.65425 28.077C6.52508 26.852 6.29175 23.6291 7.19591 19.8666C3.49175 18.7729 0.822998 16.9645 0.822998 14.4999C0.822998 12.0354 3.49175 10.227 7.19591 9.13327C6.29175 5.37077 6.52508 2.14785 8.65425 0.922854C10.798 -0.302146 13.7001 1.09785 16.5001 3.7666C19.3001 1.09785 22.2022 -0.302146 24.3313 0.922854ZM23.9084 14.4999C24.4042 15.5937 24.8417 16.6874 25.2063 17.7958C28.2688 16.877 29.9897 15.5645 29.9897 14.4999C29.9897 13.4354 28.2688 12.1229 25.2063 11.2041C24.8417 12.3124 24.4042 13.4062 23.9084 14.4999ZM9.09175 14.4999C8.59591 13.4062 8.15841 12.3124 7.79383 11.2041C4.73133 12.1229 3.0105 13.4354 3.0105 14.4999C3.0105 15.5645 4.73133 16.877 7.79383 17.7958C8.15841 16.6874 8.59591 15.5937 9.09175 14.4999ZM22.2167 17.7958L21.7792 18.5395C22.2313 18.4666 22.6688 18.3937 23.0626 18.3062C22.9605 17.8979 22.8001 17.4749 22.6397 17.052L22.2167 17.7958ZM18.0022 23.6874C20.3209 25.8749 22.3334 26.7208 23.2376 26.1666C24.1709 25.6562 24.448 23.5124 23.7042 20.3916C22.5813 20.6249 21.4001 20.7999 20.2042 20.9166C19.5042 21.8937 18.7605 22.827 18.0022 23.6874ZM10.7834 11.2041L11.2209 10.4604C10.7688 10.5333 10.3313 10.6062 9.93758 10.6937C10.0397 11.102 10.2001 11.5249 10.3605 11.9479L10.7834 11.2041ZM14.998 5.31244C12.6792 3.12494 10.6667 2.2791 9.748 2.83327C8.82925 3.34369 8.55216 5.48744 9.29591 8.60827C10.4524 8.37099 11.6207 8.19574 12.7959 8.08327C13.4959 7.10619 14.2397 6.17285 14.998 5.31244Z" fill="white"/>
</svg>
