<svg width="17" height="20" viewBox="0 0 17 20" fill="none" xmlns="http://www.w3.org/2000/svg">
<path d="M4.61064 6.09167C4.36204 5.9249 4.12963 5.73518 3.91647 5.525C3.15564 4.76667 2.76647 3.8025 2.76647 2.55167V2.0725C4.03147 0.774167 5.98147 0 8.30564 0C12.8006 0 15.4015 2.33333 16.0431 5.61667H11.9656C11.5156 4.32167 10.3906 3.31333 8.33897 3.31333C6.32064 3.31333 4.8923 4.37667 4.61147 6.09167H4.61064ZM2.35147 2.55167C2.35147 5.24833 4.04647 6.85333 7.4398 7.69917L11.0365 8.51833C14.2481 9.24333 16.2031 11.0433 16.2031 13.9767C16.2272 15.2575 15.804 16.5066 15.0065 17.5092C15.0065 14.5833 13.4648 13.0017 9.74814 12.0508L6.21814 11.2625C3.39064 10.6292 1.20897 9.14917 1.20897 5.9625C1.19507 4.72951 1.59812 3.52785 2.35147 2.55167ZM12.7656 13.7367C12.5223 15.5992 11.0223 16.6492 8.85064 16.6492C6.9223 16.6492 5.4773 15.8608 4.93147 14.1575H0.69397C1.38064 17.8667 4.46897 20 8.88147 20C11.2381 20 13.279 19.275 14.5898 17.9675V17.5092C14.5898 16.1258 14.229 15.1125 13.4715 14.3292C13.2566 14.1088 13.0202 13.9106 12.7656 13.7375V13.7367Z" fill="white"/>
</svg>
