<svg width="35" height="35" viewBox="0 0 35 35" fill="none" xmlns="http://www.w3.org/2000/svg">
<path d="M17.5001 8.75C13.6063 8.75 11.1855 10.6896 10.2084 14.5833C11.6667 12.6437 13.373 11.9146 15.3126 12.3958C16.4209 12.6729 17.223 13.475 18.098 14.3646C19.5272 15.8229 21.1459 17.5 24.7917 17.5C28.6855 17.5 31.1063 15.5604 32.0834 11.6667C30.6251 13.6063 28.9188 14.3354 26.9792 13.8542C25.8709 13.5771 25.0834 12.775 24.1938 11.8854C22.7647 10.4271 21.1459 8.75 17.5001 8.75ZM10.2084 17.5C6.31466 17.5 3.89383 19.4396 2.91675 23.3333C4.37508 21.3938 6.08133 20.6646 8.02091 21.1458C9.12925 21.4229 9.91675 22.225 10.8063 23.1146C12.2355 24.5729 13.8542 26.25 17.5001 26.25C21.3938 26.25 23.8147 24.3104 24.7917 20.4167C23.3334 22.3563 21.6272 23.0854 19.6876 22.6042C18.5792 22.3271 17.7917 21.525 16.9022 20.6354C15.473 19.1771 13.8542 17.5 10.2084 17.5Z" fill="white"/>
</svg>
