<svg width="174" height="174" viewBox="0 0 174 174" fill="none" xmlns="http://www.w3.org/2000/svg">
<path d="M162.835 43.5C157.253 46.0375 151.235 47.705 145 48.5025C151.38 44.66 156.31 38.57 158.63 31.2475C152.613 34.8725 145.943 37.41 138.91 38.86C133.183 32.625 125.135 29 116 29C98.9625 29 85.0425 42.92 85.0425 60.1025C85.0425 62.5675 85.3325 64.96 85.84 67.2075C60.03 65.9025 37.0475 53.505 21.75 34.7275C19.0675 39.295 17.545 44.66 17.545 50.315C17.545 61.1175 22.9825 70.6875 31.3925 76.125C26.245 76.125 21.46 74.675 17.255 72.5V72.7175C17.255 87.7975 27.985 100.413 42.195 103.24C37.6328 104.489 32.8432 104.662 28.2025 103.748C30.1717 109.928 34.0282 115.336 39.2299 119.211C44.4316 123.087 50.717 125.234 57.2025 125.353C46.2089 134.056 32.5815 138.76 18.56 138.693C16.095 138.693 13.63 138.548 11.165 138.258C24.94 147.103 41.325 152.25 58.87 152.25C116 152.25 147.393 104.835 147.393 63.7275C147.393 62.35 147.393 61.045 147.32 59.6675C153.41 55.3175 158.63 49.8075 162.835 43.5Z" fill="url(#paint0_linear_10_915)"/>
<defs>
<linearGradient id="paint0_linear_10_915" x1="-17.0526" y1="70.2451" x2="186.189" y2="115.395" gradientUnits="userSpaceOnUse">
<stop stop-color="#E100FF"/>
<stop offset="1" stop-color="#7F00FF"/>
</linearGradient>
</defs>
</svg>
